<svg width="587" height="836" viewBox="0 0 587 836" fill="none" xmlns="http://www.w3.org/2000/svg">
<path d="M335.912 0.739438C329.881 1.40351 321.969 3.33994 319.091 4.83376C316.767 6.10648 307.084 12.8016 305.591 14.24C304.705 15.0146 301.884 18.9431 299.283 22.9824C294.691 30.1202 294.524 30.3414 291.537 31.448C289.877 32.0567 287.387 33.1632 285.948 33.9379C284.51 34.7122 282.684 35.3212 281.798 35.3212C279.143 35.3212 277.261 36.7597 274.329 41.1309C270.456 46.7191 269.46 48.8218 268.353 53.4694C267.578 56.6237 267.523 57.7303 268.021 58.8368C268.851 60.6626 268.851 62.5438 268.076 64.3144C267.523 65.5315 267.634 65.9191 268.906 67.4682C270.068 68.7963 270.345 69.6263 270.068 70.6774C269.626 72.5035 267.357 74.5505 264.259 75.8231C260.164 77.5937 249.762 82.3524 247.659 83.4588C239.692 87.6086 236.261 89.7665 235.819 91.0393C235.597 91.537 235.542 91.9798 235.653 92.0904C235.763 92.2011 237.866 91.7032 240.356 90.9287C242.846 90.2094 246.608 89.3794 248.655 89.1027C250.703 88.7705 253.414 88.0512 254.576 87.3873C257.342 85.8934 260.053 85.8934 261.492 87.3322C262.875 88.7154 262.875 89.4347 261.492 91.2051C260.883 91.9798 260.385 92.7543 260.385 92.9758C260.385 93.9164 262.986 93.3631 264.923 92.0349C267.413 90.3752 269.57 90.2093 270.068 91.7032C270.677 93.6953 268.298 97.0702 263.595 101.054C259.002 104.927 256.844 107.03 255.35 109.243C253.69 111.788 247.659 119.258 245.225 121.858C242.514 124.791 242.292 125.731 243.012 131.264C243.233 132.925 243.676 133.81 244.174 133.81C245.667 133.81 250.26 128.83 253.137 124.127C255.461 120.309 256.9 118.705 260.552 115.827C263.041 113.836 265.476 112.231 265.974 112.231C267.191 112.231 268.519 113.835 268.962 115.993C269.183 117.211 269.847 118.041 270.732 118.483C272.226 119.147 274.218 123.02 274.218 125.233C274.218 127.391 272.115 129.162 265.365 132.592C261.879 134.363 258.117 136.687 257.01 137.738C249.873 144.489 237.7 156.772 237.7 157.215C237.7 157.547 235.874 159.594 233.716 161.752C231.503 163.91 226.191 169.387 221.931 173.869C212.635 183.718 203.893 192.571 200.905 195.227C197.807 197.993 184.914 211.383 181.207 215.699C175.508 222.339 172.41 228.149 172.41 232.132C172.41 233.294 172.908 236.006 173.516 238.108C174.844 242.645 176.559 253.324 177.113 259.964C178.496 277.725 180.654 286.799 190.724 317.231C197.807 338.478 197.308 336.984 198.194 341.189C199.522 347.552 199.798 354.192 198.803 357.18C198.36 358.619 197.696 361.385 197.309 363.266C196.091 370.127 198.636 388.276 201.403 392.37C202.454 393.919 203.007 394.196 205.608 394.417C208.098 394.639 208.651 394.915 208.817 395.801C209.481 400.282 210.699 401.61 214.129 401.61C216.232 401.61 216.785 401.389 217.781 399.951C219.164 398.014 219.994 398.235 219.994 400.614C219.994 403.27 221.543 405.318 224.033 405.926C228.183 407.033 229.4 404.93 229.4 396.797C229.4 392.868 229.566 391.595 230.12 391.762C230.95 392.093 231.337 404.432 230.562 406.756C230.119 408.029 230.175 408.748 231.005 410.353C232.554 413.396 233.163 424.96 231.946 427.837C231.448 428.999 231.06 430.493 231.06 431.157C231.06 433.26 233.107 438.35 234.823 440.342C237.036 443.053 237.368 444.326 236.317 446.816C235.099 449.637 233.329 457.384 232.776 462.198C232.444 464.853 231.669 467.509 230.23 470.497C226.302 478.852 224.365 483.223 222.152 488.756C220.879 491.799 219.385 495.507 218.777 497.056C215.568 504.747 210.865 521.678 208.098 534.957C204.668 551.667 202.62 558.916 199.522 565.279C196.147 572.25 192.993 576.787 187.57 582.32C181.539 588.517 177.389 591.118 158.577 600.524C132.129 613.748 126.043 619.06 102.416 649.437C90.7417 664.431 84.5999 671.403 72.4824 683.52C63.6849 692.318 59.4244 696.136 57.2111 697.353L54.1126 698.958L50.0181 698.017C47.805 697.464 45.2597 697.076 44.4297 697.076C43.5997 697.076 42.0504 696.745 40.9993 696.302C38.5647 695.25 28.3284 694.919 26.06 695.804C20.5269 697.962 20.0843 697.962 14.8278 695.804C8.52011 693.148 6.97081 693.148 4.81291 695.804C2.65502 698.405 1.54847 701.724 0.884463 707.534C0.60786 710.024 0.220551 712.292 0.0545002 712.569C-0.111487 712.846 0.109783 714.229 0.607808 715.612C1.27176 717.549 1.32713 718.434 0.829171 719.319C0.441825 719.983 0.331158 721.422 0.552516 722.75C0.773875 724.022 0.93977 725.959 0.884463 727.066C0.884463 728.228 1.27177 729.777 1.71442 730.496C2.48905 731.658 2.54436 732.156 1.93579 733.761C1.54844 734.867 1.43776 736.085 1.71442 736.693C1.93578 737.302 2.26773 740.068 2.37841 742.945C2.43385 745.823 2.82103 748.479 3.0977 748.866C3.42961 749.198 3.54034 750.138 3.37435 750.913C3.15312 751.632 3.42958 753.182 3.87237 754.344C4.37033 755.505 4.64695 756.889 4.48097 757.442C4.09362 758.548 4.97899 776.365 5.86424 786.436C6.19627 790.087 6.91552 794.68 7.52416 796.671C8.07743 798.663 8.96278 802.149 9.46074 804.418C10.0141 806.686 10.8993 809.342 11.4526 810.283C12.0613 811.223 12.5039 812.496 12.5039 813.105C12.5039 814.212 14.1638 818.583 15.3811 820.741C15.7685 821.349 16.5985 822.953 17.3176 824.337C20.4716 830.479 24.7873 834.352 29.1032 835.071C31.1502 835.403 31.8697 835.182 35.0235 833.356C40.0034 830.479 40.114 830.036 40.0586 815.539C40.0586 804.916 40.1693 803.644 41.3313 800.157C41.9951 798.11 43.2678 795.454 44.2084 794.348C45.5917 792.633 45.7578 792.024 45.4258 790.198C45.1489 788.538 45.315 787.708 46.0897 786.712C46.6983 785.937 47.4728 784.61 47.8602 783.724C48.2475 782.783 49.2436 781.179 50.1842 780.017C51.0694 778.91 51.7888 777.361 51.7888 776.642C51.7888 773.654 55.5512 769.781 59.6457 768.674C64.5702 767.291 67.0601 763.695 65.6768 759.877C64.6255 757 64.9021 756.336 67.4473 755.229C71.6524 753.403 76.9641 749.862 77.6835 748.368C78.6241 746.487 77.4622 743.609 75.0829 741.839C74.1976 741.175 73.257 740.235 73.091 739.792C72.9251 739.294 74.4743 737.246 77.4069 734.203C79.8969 731.603 83.4933 727.729 85.2638 725.572C89.303 720.869 98.1005 712.016 101.863 708.862C104.464 706.704 108.613 702.665 110.827 700.12C111.933 698.847 119.901 693.48 128.145 688.5C145.962 677.6 170.086 661.388 176.947 655.634C183.089 650.433 197.585 641.026 205.497 637.098C212.248 633.722 224.752 628.466 226.081 628.466C226.412 628.466 227.076 628.245 227.63 627.913C228.128 627.636 229.898 626.862 231.558 626.253C234.933 624.981 241.739 620.443 244.339 617.788C245.225 616.792 249.098 611.922 252.805 606.887C256.568 601.852 261.326 595.489 263.484 592.778C277.759 574.464 289.379 557.92 294.248 548.79C295.299 546.798 297.402 542.925 298.951 540.214C301.607 535.455 308.081 523.117 322.467 495.396C326.118 488.369 329.438 482.338 329.826 481.895C330.49 481.176 331.983 481.508 340.726 483.998C346.314 485.602 352.732 487.539 355.001 488.203C361.253 490.139 371.711 492.906 374.754 493.459C377.687 493.958 385.875 495.949 388.476 496.779C389.417 497.056 392.405 497.775 395.116 498.439C401.755 499.933 403.858 500.486 411.715 502.589C415.367 503.585 420.236 504.692 422.504 505.079C432.021 506.628 441.815 509.45 447.625 512.327C454.818 515.813 455.371 516.366 454.928 519.852C454.652 522.342 454.43 526.492 452.936 553.493C452.604 559.58 452.106 567.436 451.83 570.922C451.442 575.57 451.498 580.162 452.106 587.798C453.047 600.303 453.545 603.955 455.814 614.91C459.631 633.557 460.074 636.766 460.683 648.662C460.959 654.14 461.568 662.606 462.011 667.474C462.619 674.225 462.675 679.205 462.343 688.223C461.734 703.273 461.679 703.66 458.967 704.712C456.312 705.763 455.094 708.198 455.094 712.403C455.094 714.506 454.652 716.442 453.711 718.434C452.992 720.039 452.494 721.699 452.66 722.141C452.826 722.528 452.715 724.133 452.383 725.572C451.664 728.891 452.549 735.033 454.154 738.076L455.26 740.013L453.545 745.104C452.604 747.87 451.83 751.024 451.83 752.075C451.83 757.885 461.236 759.987 481.985 758.881C485.637 758.659 489.344 758.272 490.285 757.995C491.723 757.553 494.601 757.276 505.777 756.501C506.994 756.391 509.484 756.059 511.31 755.782C513.136 755.45 516.899 755.063 519.61 754.952C532.723 754.288 543.07 753.514 545.062 753.016C546.279 752.684 548.216 752.407 549.378 752.407C550.484 752.407 553.362 751.909 555.741 751.245C558.065 750.637 562.104 749.53 564.704 748.811C570.403 747.317 577.154 743.941 581.636 740.345C585.177 737.468 586.062 736.085 586.726 732.377C587.335 729.279 586.837 727.564 584.292 723.856C582.466 721.2 581.857 720.758 579.146 719.928C576.379 719.153 574.885 719.098 565.202 719.762L554.358 720.426L550.982 718.655C549.101 717.715 545.947 716.608 543.956 716.276C541.078 715.778 539.806 715.225 537.703 713.509C536.264 712.292 533.609 710.632 531.783 709.802C528.186 708.143 524.866 705.431 524.866 704.048C524.866 702.665 526.692 702.056 530.787 702.056C533.719 702 534.328 701.89 533.553 701.447C533 701.115 532.004 700.95 531.395 701.116C530.787 701.282 529.237 700.949 527.965 700.396C526.747 699.787 524.756 699.179 523.649 699.013C521.547 698.68 518.78 695.97 518.78 694.31C518.78 693.48 522.764 689.607 525.641 687.67C527.633 686.287 528.131 685.457 527.024 685.457C526.692 685.457 524.977 686.343 523.206 687.393C520.44 689.053 519.499 689.33 515.958 689.441L511.864 689.607L510.923 687.726C509.595 685.07 507.824 683.354 505.168 682.192C503.896 681.639 502.734 680.92 502.568 680.643C501.683 679.26 500.964 666.866 500.964 653.365C500.964 638.647 501.185 635.77 503.011 622.656C503.453 619.281 504.117 614.689 504.449 612.421C505.113 607.551 505.722 601.576 506.607 591.671C507.88 576.345 508.876 565.389 509.484 559.303C509.872 555.319 509.927 550.616 509.65 546.577C509.042 538.111 509.263 514.54 509.982 510.335C510.314 508.509 511.144 505.079 511.919 502.7C514.962 492.906 512.472 482.338 505.777 476.473C504.062 475.034 500.189 470.552 497.146 466.513C486.356 452.238 476.95 445.156 445.19 427.45C444.139 426.841 440.542 424.849 437.223 423.079C433.903 421.253 428.038 417.878 424.22 415.554C420.402 413.285 413.652 409.467 409.225 407.144C404.799 404.764 397.606 400.946 393.179 398.567C388.753 396.188 383.994 393.643 382.5 392.924C380.011 391.651 379.291 390.765 377.189 386.394C376.912 385.786 375.584 381.913 374.201 377.818C372.818 373.724 371.268 369.242 370.826 367.914C369.83 365.258 369.83 364.649 371.655 349.876C372.264 345.007 373.26 336.265 373.869 330.51C375.529 314.022 374.865 316.014 380.951 308.987C383.884 305.612 388.144 300.466 390.357 297.589C392.626 294.711 395.89 290.838 397.606 289.012C399.376 287.186 403.139 282.428 405.961 278.5C412.102 270.034 418.023 263.118 426.212 254.652C431.855 248.842 432.464 248.4 437.167 246.408C439.934 245.301 443.419 243.641 444.913 242.811C446.463 241.981 448.51 241.152 449.561 240.93C450.557 240.764 452.549 239.768 453.988 238.717C455.371 237.721 457.363 236.448 458.414 235.895C461.015 234.622 467.212 229.643 467.876 228.37C468.318 227.595 468.208 227.097 467.322 226.212C465.995 224.884 465.718 224.884 462.896 225.991C461.623 226.489 460.462 226.765 460.295 226.544C459.797 226.046 461.015 223.999 463.062 221.786C465.496 219.185 466.382 217.636 467.82 213.818C468.484 211.992 469.48 209.89 470.089 209.06C471.749 206.736 472.025 204.91 470.808 203.693C468.374 201.203 468.374 201.147 469.536 197.827C470.587 194.895 470.587 194.563 469.757 192.848C468.927 191.077 468.927 190.856 470.31 187.923C472.247 183.884 472.247 181.56 470.31 180.786C468.374 180.066 467.212 180.841 463.394 185.323C454.098 196.112 449.119 200.262 441.483 203.471C435.175 206.182 433.017 205.574 433.017 201.092C433.017 199.321 433.792 197.163 436.171 192.405C439.048 186.761 439.38 185.71 439.38 182.667C439.38 180.122 439.104 178.96 438.44 178.24C436.005 175.806 432.077 180.177 427.982 189.97C426.654 193.014 424.884 196.721 423.943 198.27C422.173 201.092 421.785 201.922 419.793 206.293C419.185 207.676 417.967 210 417.137 211.549C414.371 216.363 413.486 219.351 413.818 222.837C414.15 226.821 413.486 228.702 409.502 235.176C404.688 242.867 396.942 252.052 392.405 255.427C389.085 257.917 389.029 256.699 392.294 251.443C397.606 242.811 398.712 239.492 398.712 231.8C398.712 226.267 397.55 220.07 395.116 212.656C394.673 211.439 394.23 207.455 394.064 203.803C393.677 194.729 392.626 188.919 389.97 181.228C386.927 172.431 385.322 170.384 378.129 165.957C369.83 160.811 365.403 157.436 362.139 153.674L359.262 150.354L359.704 144.157C360.257 134.916 361.309 129.107 363.356 123.574C366.288 115.496 369.442 113.061 376.248 113.725C378.461 113.891 380.453 113.559 385.433 112.009C394.341 109.298 395.005 108.358 393.456 100.722C393.124 99.2834 393.345 98.5643 394.507 97.0702C396.112 94.9677 396.222 94.1375 395.337 92.0904C394.784 90.9286 394.895 90.486 396.112 88.9919C397.495 87.3322 397.55 87.2766 396.776 84.6762C395.392 80.1942 395.614 79.4198 398.989 76.5425C403.194 72.9459 403.194 71.5626 398.823 66.4723C397.052 64.3698 394.784 61.5479 393.788 60.1095L391.907 57.5086L392.294 51.0905C392.736 43.7869 392.349 41.6843 388.642 33.1633L386.373 28.0176L388.642 26.081C389.915 25.0295 390.966 23.8677 390.966 23.591C390.966 23.259 390.191 21.0457 389.251 18.722C387.757 14.9038 387.204 14.1294 383.994 11.6395C382.058 10.0351 379.181 8.15376 377.631 7.37914C376.137 6.60451 374.311 5.332 373.648 4.5573C371.877 2.45484 368.612 1.18215 363.356 0.518076C357.435 -0.256615 344.488 -0.145996 335.912 0.739438ZM259.224 209.723C260.109 212.601 260.883 216.253 262.931 228.149C263.982 234.235 265.199 241.096 265.642 243.365C266.14 245.633 266.859 249.617 267.302 252.218C268.741 260.517 270.124 266.271 271.064 267.71C272.06 269.259 274.661 278.721 276.653 288.182C277.648 293.051 277.815 294.877 277.427 296.427C277.095 297.478 277.04 299.636 277.261 301.185C277.427 302.679 277.648 307.438 277.704 311.698C277.759 319.278 277.759 319.5 275.989 323.594C273.554 329.238 272.392 331.34 267.745 338.312C260.275 349.655 258.781 352.089 257.232 355.686C256.402 357.678 254.52 361.44 253.082 364.096C251.588 366.697 250.426 369.187 250.426 369.629C250.426 370.736 248.822 372.838 247.991 372.838C247.604 372.838 246.664 371.953 245.889 370.846C245.114 369.795 242.514 366.863 240.079 364.373C234.048 358.12 229.4 352.477 228.46 350.263C228.017 349.212 227.298 344.952 226.855 340.802C226.412 336.652 225.749 332.392 225.472 331.34C224.642 328.574 222.207 319.223 221.654 316.955C221.433 315.903 220.603 312.528 219.828 309.485C217.504 300.411 216.674 292.332 216.342 276.839C216.176 268.927 215.734 259.355 215.291 255.537C213.631 241.207 213.299 237.444 213.686 236.559C213.852 236.061 215.18 235.12 216.563 234.456C223.48 231.192 245.059 217.636 251.256 212.601C254.078 210.332 257.674 207.953 258.228 207.953C258.449 207.953 258.891 208.783 259.224 209.723Z" fill="url(#paint0_linear)" fill-opacity="0.9"/>
<path d="M240.688 136.3C239.858 136.853 239.803 137.185 240.3 137.738C241.075 138.568 242.68 138.015 242.68 136.908C242.68 135.691 241.85 135.415 240.688 136.3Z" fill="url(#paint1_linear)" fill-opacity="0.9"/>
<defs>
<linearGradient id="paint0_linear" x1="293.48" y1="0" x2="293.48" y2="835.2" gradientUnits="userSpaceOnUse">
<stop stop-color="#155263" stop-opacity="0.76"/>
<stop offset="1" stop-color="#155263" stop-opacity="0"/>
</linearGradient>
<linearGradient id="paint1_linear" x1="241.331" y1="135.781" x2="241.331" y2="138.138" gradientUnits="userSpaceOnUse">
<stop stop-color="#155263" stop-opacity="0.76"/>
<stop offset="1" stop-color="#155263" stop-opacity="0"/>
</linearGradient>
</defs>
</svg>
