<svg width="629" height="282" viewBox="0 0 629 282" fill="none" xmlns="http://www.w3.org/2000/svg">
<path d="M169.644 116L170.836 115.09C170.575 114.749 170.181 114.535 169.753 114.504C169.325 114.473 168.904 114.626 168.597 114.925L169.644 116ZM251 222.556L249.808 223.466C250.189 223.965 250.84 224.174 251.44 223.99L251 222.556ZM17.9201 265.876L170.69 117.075L168.597 114.925L15.8269 263.727L17.9201 265.876ZM168.451 116.91L249.808 223.466L252.192 221.645L170.836 115.09L168.451 116.91ZM251.44 223.99L373.061 186.719L372.182 183.851L250.561 221.122L251.44 223.99Z" fill="#C4C4C4" fill-opacity="0.26"/>
<line x1="373.893" y1="185.471" x2="427.462" y2="221.183" stroke="#C4C4C4" stroke-opacity="0.26" stroke-width="3"/>
<line x1="425.518" y1="221.424" x2="617.969" y2="9.13313" stroke="#C4C4C4" stroke-opacity="0.26" stroke-width="3"/>
<circle cx="10" cy="272" r="10" fill="#3D6874"/>
<circle cx="169" cy="116" r="10" fill="#3D6874"/>
<ellipse cx="251" cy="222.5" rx="10" ry="9.5" fill="#3D6874"/>
<circle cx="373" cy="187" r="10" fill="#3D6874"/>
<ellipse cx="427" cy="222.5" rx="10" ry="9.5" fill="#3D6874"/>
<circle cx="619" cy="10" r="10" fill="#3D6874"/>
</svg>
