<svg width="587" height="805" viewBox="0 0 587 805" fill="none" xmlns="http://www.w3.org/2000/svg">
<path d="M335.912 0.712052C329.881 1.35153 321.969 3.21624 319.091 4.65474C316.767 5.88031 307.084 12.3275 305.591 13.7126C304.705 14.4585 301.884 18.2415 299.283 22.1312C294.691 29.0047 294.524 29.2177 291.537 30.2833C289.877 30.8694 287.387 31.9349 285.948 32.681C284.51 33.4266 282.684 34.013 281.798 34.013C279.143 34.013 277.261 35.3982 274.329 39.6076C270.456 44.9887 269.46 47.0136 268.353 51.4891C267.578 54.5265 267.523 55.5921 268.021 56.6577C268.851 58.4158 268.851 60.2274 268.076 61.9324C267.523 63.1044 267.634 63.4776 268.906 64.9694C270.068 66.2483 270.345 67.0476 270.068 68.0598C269.626 69.8182 267.357 71.7894 264.259 73.0148C260.164 74.7199 249.762 79.3023 247.659 80.3678C239.692 84.3638 236.261 86.4419 235.819 87.6674C235.597 88.1468 235.542 88.5731 235.653 88.6796C235.763 88.7863 237.866 88.3068 240.356 87.561C242.846 86.8683 246.608 86.069 248.655 85.8026C250.703 85.4827 253.414 84.79 254.576 84.1507C257.342 82.7122 260.053 82.7122 261.492 84.0976C262.875 85.4297 262.875 86.1223 261.492 87.8272C260.883 88.5731 260.385 89.3189 260.385 89.5323C260.385 90.438 262.986 89.9052 264.923 88.6262C267.413 87.0279 269.57 86.8682 270.068 88.3067C270.677 90.2251 268.298 93.475 263.595 97.3112C259.002 101.041 256.844 103.066 255.35 105.197C253.69 107.648 247.659 114.841 245.225 117.345C242.514 120.169 242.292 121.075 243.012 126.403C243.233 128.001 243.676 128.854 244.174 128.854C245.667 128.854 250.26 124.058 253.137 119.529C255.461 115.853 256.9 114.308 260.552 111.537C263.041 109.619 265.476 108.074 265.974 108.074C267.191 108.074 268.519 109.619 268.962 111.697C269.183 112.869 269.847 113.669 270.732 114.095C272.226 114.734 274.218 118.464 274.218 120.595C274.218 122.673 272.116 124.378 265.365 127.682C261.879 129.387 258.117 131.624 257.01 132.637C249.873 139.137 237.7 150.966 237.7 151.392C237.7 151.711 235.874 153.683 233.716 155.761C231.503 157.839 226.191 163.114 221.931 167.43C212.635 176.914 203.893 185.439 200.905 187.996C197.807 190.66 184.914 203.554 181.207 207.71C175.508 214.104 172.41 219.699 172.41 223.535C172.41 224.654 172.908 227.265 173.516 229.289C174.844 233.658 176.559 243.942 177.113 250.335C178.496 267.439 180.654 276.177 190.724 305.482C197.807 325.942 197.308 324.503 198.194 328.553C199.522 334.68 199.798 341.074 198.803 343.951C198.36 345.336 197.696 348 197.309 349.812C196.091 356.419 198.636 373.895 201.403 377.838C202.454 379.33 203.007 379.596 205.608 379.809C208.098 380.022 208.651 380.289 208.817 381.141C209.481 385.457 210.699 386.736 214.129 386.736C216.232 386.736 216.785 386.523 217.781 385.138C219.164 383.273 219.994 383.486 219.994 385.777C219.994 388.334 221.543 390.306 224.033 390.892C228.183 391.957 229.4 389.933 229.4 382.101C229.4 378.318 229.566 377.092 230.12 377.252C230.95 377.571 231.337 389.453 230.562 391.691C230.119 392.916 230.175 393.609 231.005 395.154C232.554 398.085 233.163 409.221 231.946 411.991C231.448 413.11 231.06 414.549 231.06 415.188C231.06 417.213 233.107 422.115 234.823 424.033C237.036 426.644 237.368 427.869 236.317 430.267C235.099 432.984 233.329 440.444 232.776 445.079C232.444 447.637 231.669 450.194 230.23 453.071C226.302 461.117 224.365 465.326 222.152 470.654C220.879 473.585 219.385 477.154 218.777 478.646C215.568 486.053 210.865 502.357 208.098 515.144C204.668 531.235 202.62 538.215 199.522 544.342C196.147 551.056 192.993 555.424 187.57 560.753C181.539 566.72 177.389 569.225 158.577 578.283C132.129 591.017 126.043 596.132 102.416 625.383C90.7417 639.822 84.5999 646.536 72.4824 658.205C63.6849 666.677 59.4244 670.353 57.2111 671.525L54.1126 673.07L50.0181 672.164C47.805 671.632 45.2597 671.259 44.4297 671.259C43.5997 671.259 42.0504 670.939 40.9993 670.513C38.5647 669.5 28.3284 669.181 26.06 670.033C20.5268 672.111 20.0843 672.111 14.8278 670.033C8.52011 667.476 6.97081 667.476 4.81291 670.033C2.65502 672.538 1.54847 675.735 0.884463 681.329C0.60786 683.726 0.220551 685.911 0.0545002 686.177C-0.111487 686.444 0.109783 687.776 0.607808 689.108C1.27176 690.973 1.32713 691.825 0.829171 692.678C0.441825 693.317 0.331158 694.703 0.552516 695.981C0.773875 697.207 0.93977 699.071 0.884463 700.137C0.884463 701.256 1.27177 702.748 1.71442 703.441C2.48905 704.56 2.54436 705.039 1.93579 706.584C1.54844 707.65 1.43776 708.822 1.71442 709.408C1.93578 709.994 2.26774 712.658 2.37841 715.429C2.43385 718.2 2.82103 720.757 3.0977 721.13C3.42961 721.45 3.54034 722.355 3.37435 723.102C3.15312 723.794 3.42958 725.286 3.87237 726.405C4.37033 727.523 4.64695 728.856 4.48097 729.389C4.09362 730.454 4.97899 747.611 5.86424 757.308C6.19627 760.825 6.91552 765.247 7.52416 767.165C8.07743 769.083 8.96278 772.44 9.46074 774.624C10.0141 776.809 10.8993 779.367 11.4526 780.272C12.0613 781.178 12.5039 782.404 12.5039 782.99C12.5039 784.056 14.1638 788.265 15.3811 790.343C15.7685 790.929 16.5985 792.474 17.3176 793.806C20.4716 799.72 24.7873 803.45 29.1032 804.143C31.1502 804.462 31.8697 804.249 35.0235 802.491C40.0034 799.72 40.114 799.294 40.0586 785.334C40.0586 775.104 40.1693 773.879 41.3313 770.522C41.9951 768.551 43.2678 765.993 44.2084 764.927C45.5917 763.276 45.7578 762.689 45.4258 760.931C45.1489 759.333 45.315 758.533 46.0897 757.574C46.6983 756.828 47.4728 755.55 47.8602 754.697C48.2475 753.791 49.2436 752.247 50.1842 751.128C51.0694 750.062 51.7888 748.57 51.7888 747.878C51.7888 745 55.5512 741.271 59.6457 740.205C64.5702 738.873 67.0601 735.41 65.6768 731.733C64.6255 728.963 64.9021 728.323 67.4473 727.257C71.6524 725.499 76.9641 722.089 77.6835 720.651C78.6241 718.839 77.4622 716.068 75.0829 714.363C74.1976 713.724 73.257 712.818 73.091 712.392C72.9251 711.913 74.4743 709.941 77.4069 707.011C79.8969 704.506 83.4933 700.776 85.2638 698.699C89.303 694.17 98.1005 685.645 101.863 682.608C104.464 680.53 108.613 676.64 110.827 674.189C111.933 672.964 119.901 667.795 128.145 663C145.962 652.504 170.086 636.892 176.947 631.351C183.089 626.343 197.585 617.285 205.497 613.502C212.248 610.251 224.752 605.19 226.081 605.19C226.412 605.19 227.076 604.977 227.63 604.657C228.128 604.39 229.898 603.645 231.558 603.058C234.933 601.833 241.739 597.464 244.339 594.906C245.225 593.947 249.098 589.259 252.805 584.41C256.568 579.561 261.326 573.434 263.484 570.823C277.759 553.187 289.379 537.256 294.248 528.464C295.299 526.546 297.402 522.817 298.951 520.206C301.607 515.624 308.081 503.742 322.467 477.048C326.118 470.281 329.438 464.474 329.826 464.047C330.49 463.355 331.983 463.674 340.726 466.072C346.314 467.617 352.732 469.482 355.001 470.121C361.253 471.986 371.711 474.65 374.754 475.183C377.687 475.663 385.875 477.581 388.476 478.38C389.417 478.646 392.405 479.339 395.116 479.978C401.755 481.417 403.858 481.95 411.715 483.974C415.367 484.934 420.236 485.999 422.504 486.372C432.021 487.864 441.815 490.581 447.625 493.352C454.818 496.709 455.371 497.242 454.928 500.598C454.652 502.996 454.43 506.992 452.936 532.993C452.604 538.854 452.106 546.42 451.83 549.777C451.443 554.252 451.498 558.675 452.106 566.028C453.047 578.069 453.545 581.586 455.814 592.136C459.631 610.092 460.074 613.182 460.683 624.637C460.959 629.912 461.568 638.065 462.011 642.753C462.619 649.254 462.675 654.049 462.343 662.734C461.734 677.226 461.679 677.599 458.967 678.612C456.312 679.624 455.094 681.968 455.094 686.018C455.094 688.042 454.652 689.907 453.711 691.825C452.992 693.37 452.494 694.969 452.66 695.395C452.826 695.768 452.715 697.313 452.383 698.699C451.664 701.895 452.549 707.81 454.154 710.74L455.26 712.605L453.545 717.507C452.604 720.171 451.83 723.208 451.83 724.22C451.83 729.815 461.236 731.839 481.985 730.774C485.637 730.56 489.344 730.188 490.285 729.921C491.723 729.495 494.6 729.229 505.777 728.483C506.994 728.376 509.484 728.057 511.31 727.79C513.136 727.471 516.899 727.098 519.61 726.991C532.723 726.352 543.07 725.606 545.062 725.126C546.279 724.807 548.216 724.54 549.378 724.54C550.484 724.54 553.362 724.06 555.741 723.421C558.065 722.835 562.104 721.77 564.704 721.077C570.403 719.638 577.154 716.388 581.636 712.925C585.177 710.154 586.062 708.822 586.726 705.252C587.335 702.268 586.837 700.617 584.292 697.047C582.466 694.489 581.857 694.063 579.146 693.264C576.379 692.518 574.885 692.465 565.202 693.104L554.358 693.743L550.982 692.038C549.101 691.133 545.947 690.067 543.956 689.747C541.078 689.268 539.806 688.735 537.703 687.083C536.264 685.911 533.609 684.312 531.783 683.513C528.186 681.915 524.866 679.304 524.866 677.972C524.866 676.64 526.692 676.054 530.787 676.054C533.719 676 534.328 675.894 533.553 675.468C533 675.148 532.004 674.988 531.395 675.148C530.787 675.308 529.237 674.988 527.965 674.456C526.747 673.869 524.756 673.283 523.649 673.123C521.547 672.803 518.78 670.193 518.78 668.595C518.78 667.795 522.764 664.066 525.641 662.201C527.633 660.869 528.131 660.07 527.024 660.07C526.692 660.07 524.977 660.922 523.206 661.934C520.44 663.533 519.499 663.799 515.958 663.906L511.864 664.066L510.923 662.254C509.595 659.697 507.824 658.045 505.168 656.926C503.896 656.393 502.734 655.7 502.568 655.434C501.683 654.102 500.964 642.167 500.964 629.166C500.964 614.994 501.185 612.223 503.011 599.595C503.453 596.345 504.117 591.922 504.449 589.738C505.113 585.049 505.722 579.295 506.607 569.758C507.88 554.999 508.876 544.449 509.484 538.588C509.872 534.752 509.927 530.223 509.65 526.333C509.042 518.181 509.263 495.483 509.982 491.434C510.314 489.676 511.144 486.372 511.919 484.081C514.962 474.65 512.472 464.474 505.777 458.826C504.062 457.44 500.189 453.125 497.146 449.235C486.356 435.488 476.95 428.668 445.19 411.618C444.139 411.032 440.542 409.114 437.223 407.409C433.903 405.651 428.038 402.401 424.22 400.163C420.402 397.978 413.652 394.302 409.225 392.064C404.799 389.773 397.606 386.096 393.179 383.806C388.753 381.514 383.994 379.063 382.5 378.371C380.011 377.145 379.291 376.293 377.189 372.084C376.912 371.497 375.584 367.768 374.201 363.825C372.818 359.882 371.268 355.566 370.826 354.288C369.83 351.73 369.83 351.144 371.655 336.918C372.264 332.229 373.26 323.81 373.869 318.269C375.529 302.391 374.865 304.31 380.951 297.543C383.884 294.293 388.144 289.337 390.357 286.567C392.626 283.796 395.89 280.066 397.606 278.308C399.376 276.55 403.139 271.968 405.961 268.185C412.102 260.033 418.023 253.373 426.212 245.22C431.855 239.626 432.464 239.2 437.167 237.282C439.934 236.216 443.419 234.617 444.913 233.818C446.463 233.019 448.51 232.22 449.561 232.007C450.557 231.847 452.549 230.888 453.988 229.875C455.371 228.916 457.363 227.691 458.414 227.158C461.015 225.933 467.212 221.137 467.876 219.912C468.318 219.166 468.208 218.686 467.322 217.834C465.995 216.555 465.718 216.555 462.896 217.621C461.623 218.1 460.462 218.367 460.295 218.154C459.797 217.674 461.015 215.703 463.062 213.571C465.496 211.067 466.382 209.575 467.82 205.899C468.484 204.14 469.48 202.116 470.089 201.317C471.749 199.079 472.025 197.321 470.808 196.148C468.374 193.751 468.374 193.697 469.536 190.5C470.587 187.676 470.587 187.357 469.757 185.705C468.927 184 468.927 183.787 470.31 180.963C472.247 177.074 472.247 174.836 470.31 174.09C468.374 173.397 467.212 174.143 463.394 178.459C454.098 188.849 449.119 192.845 441.483 195.935C435.175 198.546 433.017 197.96 433.017 193.644C433.017 191.939 433.792 189.861 436.171 185.279C439.048 179.844 439.38 178.832 439.38 175.901C439.38 173.45 439.104 172.332 438.44 171.639C436.005 169.295 432.077 173.504 427.982 182.935C426.654 185.865 424.884 189.435 423.943 190.927C422.173 193.644 421.785 194.443 419.793 198.653C419.185 199.985 417.967 202.222 417.137 203.714C414.371 208.35 413.486 211.227 413.818 214.584C414.15 218.42 413.486 220.232 409.502 226.465C404.688 233.871 396.942 242.716 392.405 245.966C389.085 248.364 389.029 247.192 392.294 242.13C397.606 233.818 398.712 230.622 398.712 223.215C398.712 217.887 397.55 211.92 395.116 204.78C394.673 203.608 394.23 199.771 394.064 196.255C393.677 187.517 392.626 181.922 389.97 174.516C386.927 166.044 385.322 164.073 378.129 159.81C369.83 154.855 365.403 151.605 362.139 147.982L359.262 144.785L359.704 138.818C360.257 129.92 361.309 124.325 363.356 118.997C366.288 111.218 369.442 108.873 376.248 109.513C378.461 109.672 380.453 109.353 385.433 107.861C394.341 105.25 395.005 104.344 393.456 96.9917C393.124 95.6062 393.345 94.9138 394.507 93.475C396.112 91.4504 396.222 90.651 395.337 88.6796C394.784 87.5609 394.895 87.1346 396.112 85.6959C397.495 84.0976 397.55 84.0442 396.776 81.5401C395.392 77.224 395.614 76.4783 398.989 73.7076C403.194 70.2442 403.194 68.9121 398.823 64.0104C397.052 61.9857 394.784 59.2684 393.788 57.8832L391.907 55.3787L392.294 49.1982C392.736 42.1652 392.349 40.1404 388.642 31.935L386.373 26.9799L388.642 25.1151C389.915 24.1025 390.966 22.9838 390.966 22.7172C390.966 22.3975 390.191 20.2662 389.251 18.0285C387.757 14.3518 387.204 13.6061 383.994 11.2084C382.058 9.66343 379.181 7.85177 377.631 7.10584C376.137 6.3599 374.311 5.13451 373.648 4.38851C371.877 2.36392 368.612 1.13837 363.356 0.498888C357.435 -0.247111 344.488 -0.140589 335.912 0.712052ZM259.224 201.956C260.109 204.726 260.883 208.243 262.931 219.699C263.982 225.56 265.199 232.167 265.642 234.351C266.14 236.536 266.859 240.372 267.302 242.876C268.741 250.868 270.124 256.41 271.064 257.795C272.06 259.287 274.661 268.398 276.653 277.509C277.648 282.198 277.815 283.956 277.427 285.448C277.095 286.46 277.04 288.538 277.261 290.03C277.427 291.469 277.648 296.051 277.704 300.154C277.759 307.453 277.759 307.666 275.989 311.609C273.554 317.044 272.392 319.069 267.745 325.782C260.275 336.705 258.781 339.049 257.232 342.512C256.402 344.43 254.52 348.054 253.082 350.611C251.588 353.115 250.426 355.513 250.426 355.939C250.426 357.005 248.822 359.03 247.991 359.03C247.604 359.03 246.664 358.177 245.889 357.111C245.114 356.099 242.514 353.275 240.079 350.877C234.048 344.857 229.4 339.422 228.46 337.291C228.017 336.279 227.298 332.176 226.855 328.18C226.412 324.184 225.749 320.081 225.472 319.068C224.642 316.404 222.207 307.4 221.654 305.215C221.433 304.203 220.603 300.953 219.828 298.022C217.504 289.284 216.674 281.505 216.342 266.586C216.176 258.967 215.734 249.749 215.291 246.073C213.631 232.273 213.299 228.65 213.686 227.797C213.852 227.318 215.18 226.412 216.563 225.773C223.48 222.629 245.059 209.575 251.256 204.727C254.078 202.542 257.674 200.251 258.228 200.251C258.449 200.251 258.891 201.05 259.224 201.956Z" fill="#67B541" fill-opacity="0.3"/>
<path d="M240.688 131.251C239.858 131.784 239.803 132.104 240.3 132.637C241.075 133.436 242.68 132.903 242.68 131.838C242.68 130.665 241.85 130.399 240.688 131.251Z" fill="#67B541" fill-opacity="0.3"/>
</svg>
